<?xml version="1.0" encoding="UTF-8"?>
<svg width="72px" height="72px" viewBox="0 0 72 72" version="1.1" xmlns="http://www.w3.org/2000/svg" xmlns:xlink="http://www.w3.org/1999/xlink">
    <title>F6C9C1D2-61CF-426B-846D-19D310189D9B</title>
    <defs>
        <linearGradient x1="50%" y1="0%" x2="50%" y2="100%" id="linearGradient-1">
            <stop stop-color="#1B83FF" offset="0%"></stop>
            <stop stop-color="#004DA9" offset="100%"></stop>
        </linearGradient>
        <path d="M21,33 C30.9411255,33 39,41.0588745 39,51 C39,60.9411255 30.9411255,69 21,69 C11.0588745,69 3,60.9411255 3,51 C3,41.0588745 11.0588745,33 21,33 Z M32.213058,42.6160433 L12.6160433,62.213058 C14.953138,63.9633069 17.8555027,65 21,65 C28.7319865,65 35,58.7319865 35,51 C35,47.8555027 33.9633069,44.953138 32.213058,42.6160433 Z M32.6790772,7.20424567 C37.1142875,11.639456 38.0385329,18.2615064 35.4604403,23.6361033 L66.5985848,54.7736409 C68.4737964,56.6488525 68.46614,59.6968276 66.5814838,61.5814838 C64.6968276,63.46614 61.6488525,63.4737964 59.7736409,61.5985848 L44.5566723,46.3848283 C42.4049433,35.3381208 32.6762079,27 21,27 C18.1794163,27 15.4724763,27.4865669 12.9585369,28.3803439 C12.7008096,28.1582622 12.4491926,27.9240241 12.2042457,27.6790772 C7.7702911,23.2451226 6.84531359,16.625566 9.42069367,11.2517849 L19.0291895,20.8541334 C20.9044011,22.7293449 23.9523762,22.7216886 25.8370324,20.8370324 C27.7216886,18.9523762 27.7293449,15.9044011 25.8541334,14.0291895 L16.2472195,4.4228826 C21.6218164,1.84478995 28.2438669,2.76903538 32.6790772,7.20424567 Z M62.5,55 C61.1192881,55 60,56.1192881 60,57.5 C60,58.8807119 61.1192881,60 62.5,60 C63.8807119,60 65,58.8807119 65,57.5 C65,56.1192881 63.8807119,55 62.5,55 Z M21,37 C13.2680135,37 7,43.2680135 7,51 C7,54.1444973 8.03669309,57.046862 9.78694197,59.3839567 L29.3839567,39.786942 C27.046862,38.0366931 24.1444973,37 21,37 Z" id="path-2"></path>
    </defs>
    <g id="Modals" stroke="none" stroke-width="1" fill="none" fill-rule="evenodd">
        <g id="MI-Dark-Modal-Tool-Not-Supported" transform="translate(-1114, -248)">
            <g id="MODAL-Copy-3" transform="translate(900, 220)">
                <g id="tool_not_supp_72" transform="translate(214, 28)">
                    <rect id="Rectangle" x="0" y="0" width="72" height="72"></rect>
                    <g id="Combined-Shape">
                        <use fill="#1B83FF" xlink:href="#path-2"></use>
                        <use fill="url(#linearGradient-1)" xlink:href="#path-2"></use>
                    </g>
                </g>
            </g>
        </g>
    </g>
</svg>